<?xml version="1.0" standalone="no"?>
<!DOCTYPE svg PUBLIC "-//W3C//DTD SVG 20010904//EN"
 "http://www.w3.org/TR/2001/REC-SVG-20010904/DTD/svg10.dtd">
<svg version="1.0" xmlns="http://www.w3.org/2000/svg"
 width="225.000000pt" height="225.000000pt" viewBox="0 0 225.000000 225.000000"
 preserveAspectRatio="xMidYMid meet">
<metadata>
Created by potrace 1.14, written by Peter Selinger 2001-2017
</metadata>
<g transform="translate(0.000000,225.000000) scale(0.100000,-0.100000)"
fill="#000000" stroke="none">
<path d="M980 1784 c-260 -48 -437 -140 -606 -316 -44 -46 -94 -104 -112 -130
l-33 -48 34 -30 c19 -16 60 -51 91 -77 56 -46 59 -47 72 -28 120 170 289 292
474 345 97 28 256 37 357 20 223 -35 444 -178 573 -370 23 -36 44 -67 46 -69
4 -4 82 41 141 81 l43 29 -19 37 c-98 190 -323 397 -522 479 -134 57 -221 74
-374 78 -77 2 -151 2 -165 -1z"/>
<path d="M984 1326 c-85 -20 -169 -55 -235 -99 -58 -38 -159 -132 -185 -173
-15 -22 -14 -25 18 -52 91 -80 101 -87 106 -72 2 8 37 47 76 86 108 108 217
153 365 154 93 0 179 -22 259 -67 66 -36 163 -127 188 -175 l14 -28 43 26 c23
15 54 35 70 46 l27 19 -32 46 c-84 124 -238 235 -376 275 -88 26 -257 32 -338
14z"/>
<path d="M1015 1016 c-72 -23 -128 -58 -183 -114 l-54 -55 49 -43 c26 -24 51
-43 56 -44 4 0 23 17 42 39 96 105 294 111 391 10 15 -16 31 -29 36 -29 12 0
108 64 108 72 0 16 -73 88 -118 116 -91 58 -231 78 -327 48z"/>
<path d="M1076 763 c-39 -10 -95 -56 -112 -91 -20 -43 -20 -112 1 -152 19 -36
69 -78 103 -86 15 -3 32 -7 38 -9 6 -2 32 1 57 7 34 7 56 20 86 53 52 57 63
114 32 178 -26 54 -48 75 -98 93 -39 13 -72 16 -107 7z"/>
</g>
</svg>
